<svg width="171" height="40" viewBox="0 0 171 40" fill="none" xmlns="http://www.w3.org/2000/svg">
<path d="M16.4658 7.91821C16.4658 7.36593 16.9135 6.91821 17.4658 6.91821H20.3365C20.8888 6.91821 21.3365 7.36593 21.3365 7.91821V27.5134C21.3365 28.0656 20.8888 28.5134 20.3365 28.5134H17.4658C16.9135 28.5134 16.4658 28.0656 16.4658 27.5134V25.7116C14.4686 27.5794 12.3206 28.5134 10.0217 28.5134C7.11936 28.5134 4.7199 27.4645 2.82332 25.3668C0.941106 23.2259 0 20.5535 0 17.3494C0 14.2028 0.941106 11.5806 2.82332 9.48291C4.70553 7.38517 7.06189 6.33631 9.89239 6.33631C12.335 6.33631 14.5261 7.34207 16.4658 9.35359V7.91821ZM4.95697 17.3494C4.95697 19.3609 5.49577 20.9989 6.57337 22.2633C7.67971 23.542 9.07341 24.1814 10.7545 24.1814C12.5505 24.1814 14.0016 23.5636 15.108 22.3279C16.2143 21.0492 16.7675 19.4256 16.7675 17.4572C16.7675 15.4887 16.2143 13.8652 15.108 12.5864C14.0016 11.3364 12.5648 10.7114 10.7976 10.7114C9.13088 10.7114 7.73718 11.3436 6.61648 12.6079C5.51014 13.8867 4.95697 15.4672 4.95697 17.3494Z" fill="#ebebeb"/>
<path d="M16.4658 7.91821C16.4658 7.36593 16.9135 6.91821 17.4658 6.91821H20.3365C20.8888 6.91821 21.3365 7.36593 21.3365 7.91821V27.5134C21.3365 28.0656 20.8888 28.5134 20.3365 28.5134H17.4658C16.9135 28.5134 16.4658 28.0656 16.4658 27.5134V25.7116C14.4686 27.5794 12.3206 28.5134 10.0217 28.5134C7.11936 28.5134 4.7199 27.4645 2.82332 25.3668C0.941106 23.2259 0 20.5535 0 17.3494C0 14.2028 0.941106 11.5806 2.82332 9.48291C4.70553 7.38517 7.06189 6.33631 9.89239 6.33631C12.335 6.33631 14.5261 7.34207 16.4658 9.35359V7.91821ZM4.95697 17.3494C4.95697 19.3609 5.49577 20.9989 6.57337 22.2633C7.67971 23.542 9.07341 24.1814 10.7545 24.1814C12.5505 24.1814 14.0016 23.5636 15.108 22.3279C16.2143 21.0492 16.7675 19.4256 16.7675 17.4572C16.7675 15.4887 16.2143 13.8652 15.108 12.5864C14.0016 11.3364 12.5648 10.7114 10.7976 10.7114C9.13088 10.7114 7.73718 11.3436 6.61648 12.6079C5.51014 13.8867 4.95697 15.4672 4.95697 17.3494Z" fill="#ebebeb"/>
<path d="M27.4012 8.04124e-06C27.9552 8.04124e-06 28.4037 0.450487 28.4011 1.00453L28.2811 27.5179C28.2787 28.0684 27.8317 28.5134 27.2812 28.5134H24.4274C23.8751 28.5134 23.4274 28.0656 23.4274 27.5134V1.00001C23.4274 0.447722 23.8751 8.04124e-06 24.4274 8.04124e-06H27.4012Z" fill="#ebebeb"/>
<path d="M27.4012 8.04124e-06C27.9552 8.04124e-06 28.4037 0.450487 28.4011 1.00453L28.2811 27.5179C28.2787 28.0684 27.8317 28.5134 27.2812 28.5134H24.4274C23.8751 28.5134 23.4274 28.0656 23.4274 27.5134V1.00001C23.4274 0.447722 23.8751 8.04124e-06 24.4274 8.04124e-06H27.4012Z" fill="#ebebeb"/>
<path d="M30.0214 17.2639C30.0214 14.2323 31.1062 11.6532 33.2757 9.52674C35.4453 7.40027 38.089 6.33704 41.2069 6.33704C44.3391 6.33704 46.9972 7.40745 49.1812 9.54829C51.3364 11.6891 52.414 14.3185 52.414 17.4363C52.414 20.5829 51.3292 23.2195 49.1596 25.3459C46.9757 27.458 44.296 28.5141 41.1207 28.5141C37.9741 28.5141 35.3376 27.4365 33.2111 25.2813C31.0846 23.1548 30.0214 20.4824 30.0214 17.2639ZM34.9784 17.3501C34.9784 19.4479 35.5387 21.1074 36.6594 22.3286C37.8089 23.5643 39.3247 24.1821 41.2069 24.1821C43.1035 24.1821 44.6193 23.5715 45.7544 22.3502C46.8895 21.1289 47.457 19.4981 47.457 17.4579C47.457 15.4176 46.8895 13.7869 45.7544 12.5656C44.6049 11.3299 43.0891 10.7121 41.2069 10.7121C39.3534 10.7121 37.852 11.3299 36.7025 12.5656C35.5531 13.8012 34.9784 15.3961 34.9784 17.3501Z" fill="#ebebeb"/>
<path d="M30.0214 17.2639C30.0214 14.2323 31.1062 11.6532 33.2757 9.52674C35.4453 7.40027 38.089 6.33704 41.2069 6.33704C44.3391 6.33704 46.9972 7.40745 49.1812 9.54829C51.3364 11.6891 52.414 14.3185 52.414 17.4363C52.414 20.5829 51.3292 23.2195 49.1596 25.3459C46.9757 27.458 44.296 28.5141 41.1207 28.5141C37.9741 28.5141 35.3376 27.4365 33.2111 25.2813C31.0846 23.1548 30.0214 20.4824 30.0214 17.2639ZM34.9784 17.3501C34.9784 19.4479 35.5387 21.1074 36.6594 22.3286C37.8089 23.5643 39.3247 24.1821 41.2069 24.1821C43.1035 24.1821 44.6193 23.5715 45.7544 22.3502C46.8895 21.1289 47.457 19.4981 47.457 17.4579C47.457 15.4176 46.8895 13.7869 45.7544 12.5656C44.6049 11.3299 43.0891 10.7121 41.2069 10.7121C39.3534 10.7121 37.852 11.3299 36.7025 12.5656C35.5531 13.8012 34.9784 15.3961 34.9784 17.3501Z" fill="#ebebeb"/>
<path d="M54.3739 8.54263C54.3739 7.99034 54.8216 7.54263 55.3739 7.54263H58.2446C58.7969 7.54263 59.2446 7.99034 59.2446 8.54263V9.48231C60.94 7.80125 62.851 6.96072 64.9775 6.96072C67.42 6.96072 69.3238 7.72941 70.6888 9.26679C71.8669 10.5743 72.456 12.7079 72.456 15.6677V27.5343C72.456 28.0866 72.0083 28.5343 71.456 28.5343H68.5853C68.033 28.5343 67.5853 28.0866 67.5853 27.5343V16.81C67.5853 14.741 67.2979 13.3114 66.7232 12.5211C66.1628 11.7165 65.1427 11.3142 63.6628 11.3142C62.0536 11.3142 60.9113 11.8459 60.236 12.9091C59.5751 13.958 59.2446 15.7899 59.2446 18.4049V27.5343C59.2446 28.0866 58.7969 28.5343 58.2446 28.5343H55.3739C54.8216 28.5343 54.3739 28.0866 54.3739 27.5343V8.54263Z" fill="#ebebeb"/>
<path d="M54.3739 8.54263C54.3739 7.99034 54.8216 7.54263 55.3739 7.54263H58.2446C58.7969 7.54263 59.2446 7.99034 59.2446 8.54263V9.48231C60.94 7.80125 62.851 6.96072 64.9775 6.96072C67.42 6.96072 69.3238 7.72941 70.6888 9.26679C71.8669 10.5743 72.456 12.7079 72.456 15.6677V27.5343C72.456 28.0866 72.0083 28.5343 71.456 28.5343H68.5853C68.033 28.5343 67.5853 28.0866 67.5853 27.5343V16.81C67.5853 14.741 67.2979 13.3114 66.7232 12.5211C66.1628 11.7165 65.1427 11.3142 63.6628 11.3142C62.0536 11.3142 60.9113 11.8459 60.236 12.9091C59.5751 13.958 59.2446 15.7899 59.2446 18.4049V27.5343C59.2446 28.0866 58.7969 28.5343 58.2446 28.5343H55.3739C54.8216 28.5343 54.3739 28.0866 54.3739 27.5343V8.54263Z" fill="#ebebeb"/>
<path d="M95.7538 28.0386C95.7538 29.03 95.7179 29.8993 95.646 30.6464C95.5885 31.4079 95.5023 32.076 95.3874 32.6508C95.0426 34.2312 94.3673 35.589 93.3615 36.7241C91.4649 38.908 88.8571 40 85.5381 40C82.7364 40 80.4303 39.2457 78.6199 37.737C77.0089 36.3986 75.9857 34.6166 75.5504 32.391C75.4365 31.8086 75.9038 31.293 76.4973 31.293H79.4223C79.906 31.293 80.312 31.6419 80.4438 32.1073C80.6275 32.7561 80.8744 33.282 81.1846 33.6852C82.1904 34.9927 83.6559 35.6465 85.5812 35.6465C89.1301 35.6465 90.9046 33.4697 90.9046 29.1162V26.1851C88.9792 28.1536 86.7594 29.1378 84.245 29.1378C81.3858 29.1378 79.0438 28.1033 77.219 26.0343C75.3799 23.9365 74.4604 21.3144 74.4604 18.1678C74.4604 15.1074 75.3153 12.5068 77.0251 10.3659C78.8642 8.0958 81.2924 6.96072 84.3097 6.96072C86.9534 6.96072 89.1517 7.94493 90.9046 9.91335V8.54263C90.9046 7.99034 91.3523 7.54263 91.9046 7.54263H94.7538C95.3061 7.54263 95.7538 7.99034 95.7538 8.54263V28.0386ZM91.0985 18.0816C91.0985 16.0413 90.5526 14.4105 89.4606 13.1893C88.3543 11.9392 86.939 11.3142 85.2148 11.3142C83.3757 11.3142 81.9246 11.9967 80.8613 13.3617C79.8987 14.583 79.4173 16.1634 79.4173 18.1031C79.4173 20.0141 79.8987 21.5802 80.8613 22.8015C81.9102 24.1377 83.3614 24.8058 85.2148 24.8058C87.0683 24.8058 88.5338 24.1305 89.6114 22.7799C90.6028 21.5586 91.0985 19.9925 91.0985 18.0816Z" fill="#ebebeb"/>
<path d="M95.7538 28.0386C95.7538 29.03 95.7179 29.8993 95.646 30.6464C95.5885 31.4079 95.5023 32.076 95.3874 32.6508C95.0426 34.2312 94.3673 35.589 93.3615 36.7241C91.4649 38.908 88.8571 40 85.5381 40C82.7364 40 80.4303 39.2457 78.6199 37.737C77.0089 36.3986 75.9857 34.6166 75.5504 32.391C75.4365 31.8086 75.9038 31.293 76.4973 31.293H79.4223C79.906 31.293 80.312 31.6419 80.4438 32.1073C80.6275 32.7561 80.8744 33.282 81.1846 33.6852C82.1904 34.9927 83.6559 35.6465 85.5812 35.6465C89.1301 35.6465 90.9046 33.4697 90.9046 29.1162V26.1851C88.9792 28.1536 86.7594 29.1378 84.245 29.1378C81.3858 29.1378 79.0438 28.1033 77.219 26.0343C75.3799 23.9365 74.4604 21.3144 74.4604 18.1678C74.4604 15.1074 75.3153 12.5068 77.0251 10.3659C78.8642 8.0958 81.2924 6.96072 84.3097 6.96072C86.9534 6.96072 89.1517 7.94493 90.9046 9.91335V8.54263C90.9046 7.99034 91.3523 7.54263 91.9046 7.54263H94.7538C95.3061 7.54263 95.7538 7.99034 95.7538 8.54263V28.0386ZM91.0985 18.0816C91.0985 16.0413 90.5526 14.4105 89.4606 13.1893C88.3543 11.9392 86.939 11.3142 85.2148 11.3142C83.3757 11.3142 81.9246 11.9967 80.8613 13.3617C79.8987 14.583 79.4173 16.1634 79.4173 18.1031C79.4173 20.0141 79.8987 21.5802 80.8613 22.8015C81.9102 24.1377 83.3614 24.8058 85.2148 24.8058C87.0683 24.8058 88.5338 24.1305 89.6114 22.7799C90.6028 21.5586 91.0985 19.9925 91.0985 18.0816Z" fill="#ebebeb"/>
<path d="M110.376 9.67356C110.646 10.1334 110.449 10.7138 109.979 10.9644L107.724 12.1642C107.225 12.43 106.619 12.2166 106.28 11.7633C105.756 11.0616 105.15 10.7108 104.462 10.7108C104.016 10.7108 103.635 10.8616 103.319 11.1634C103.003 11.4507 102.845 11.8243 102.845 12.2841C102.845 13.0887 103.779 13.8861 105.647 14.6764C108.219 15.7827 109.95 16.8028 110.841 17.7367C111.732 18.6707 112.177 19.9279 112.177 21.5084C112.177 23.5342 111.43 25.2297 109.936 26.5946C108.485 27.8878 106.732 28.5343 104.677 28.5343C101.47 28.5343 99.1161 27.1094 97.6144 24.2597C97.3625 23.7816 97.5882 23.2028 98.0784 22.9755L100.503 21.8515C100.975 21.633 101.531 21.8142 101.806 22.2546C102.156 22.8141 102.438 23.1903 102.651 23.3834C103.24 23.9294 103.944 24.2024 104.763 24.2024C106.401 24.2024 107.22 23.4552 107.22 21.9609C107.22 21.0989 106.588 20.2943 105.324 19.5471C104.835 19.3029 104.347 19.0658 103.858 18.8359C103.37 18.606 102.874 18.3689 102.371 18.1247C100.963 17.435 99.9716 16.7453 99.3969 16.0557C98.6641 15.1792 98.2977 14.0513 98.2977 12.672C98.2977 10.8473 98.9228 9.33863 100.173 8.14609C101.452 6.95354 103.003 6.35727 104.828 6.35727C107.227 6.35727 109.076 7.4627 110.376 9.67356Z" fill="#ebebeb"/>
<path d="M110.376 9.67356C110.646 10.1334 110.449 10.7138 109.979 10.9644L107.724 12.1642C107.225 12.43 106.619 12.2166 106.28 11.7633C105.756 11.0616 105.15 10.7108 104.462 10.7108C104.016 10.7108 103.635 10.8616 103.319 11.1634C103.003 11.4507 102.845 11.8243 102.845 12.2841C102.845 13.0887 103.779 13.8861 105.647 14.6764C108.219 15.7827 109.95 16.8028 110.841 17.7367C111.732 18.6707 112.177 19.9279 112.177 21.5084C112.177 23.5342 111.43 25.2297 109.936 26.5946C108.485 27.8878 106.732 28.5343 104.677 28.5343C101.47 28.5343 99.1161 27.1094 97.6144 24.2597C97.3625 23.7816 97.5882 23.2028 98.0784 22.9755L100.503 21.8515C100.975 21.633 101.531 21.8142 101.806 22.2546C102.156 22.8141 102.438 23.1903 102.651 23.3834C103.24 23.9294 103.944 24.2024 104.763 24.2024C106.401 24.2024 107.22 23.4552 107.22 21.9609C107.22 21.0989 106.588 20.2943 105.324 19.5471C104.835 19.3029 104.347 19.0658 103.858 18.8359C103.37 18.606 102.874 18.3689 102.371 18.1247C100.963 17.435 99.9716 16.7453 99.3969 16.0557C98.6641 15.1792 98.2977 14.0513 98.2977 12.672C98.2977 10.8473 98.9228 9.33863 100.173 8.14609C101.452 6.95354 103.003 6.35727 104.828 6.35727C107.227 6.35727 109.076 7.4627 110.376 9.67356Z" fill="#ebebeb"/>
<path d="M117.805 7.52166C118.358 7.52166 118.807 7.97125 118.805 8.52474L118.747 27.5335C118.745 28.0864 118.295 28.5329 117.742 28.5304L114.954 28.5178C114.404 28.5154 113.959 28.0684 113.959 27.5179V8.52166C113.959 7.96938 114.407 7.52166 114.959 7.52166H117.805ZM113.355 3.12505C113.355 2.27733 113.664 1.54456 114.282 0.926738C114.9 0.308913 115.64 0 116.502 0C117.378 0 118.126 0.308913 118.743 0.926738C119.361 1.53019 119.67 2.27015 119.67 3.1466C119.67 4.02305 119.361 4.77018 118.743 5.38801C118.14 6.00583 117.4 6.31475 116.524 6.31475C115.647 6.31475 114.9 6.00583 114.282 5.38801C113.664 4.77018 113.355 4.01586 113.355 3.12505Z" fill="#ebebeb"/>
<path d="M117.805 7.52166C118.358 7.52166 118.807 7.97125 118.805 8.52474L118.747 27.5335C118.745 28.0864 118.295 28.5329 117.742 28.5304L114.954 28.5178C114.404 28.5154 113.959 28.0684 113.959 27.5179V8.52166C113.959 7.96938 114.407 7.52166 114.959 7.52166H117.805ZM113.355 3.12505C113.355 2.27733 113.664 1.54456 114.282 0.926738C114.9 0.308913 115.64 0 116.502 0C117.378 0 118.126 0.308913 118.743 0.926738C119.361 1.53019 119.67 2.27015 119.67 3.1466C119.67 4.02305 119.361 4.77018 118.743 5.38801C118.14 6.00583 117.4 6.31475 116.524 6.31475C115.647 6.31475 114.9 6.00583 114.282 5.38801C113.664 4.77018 113.355 4.01586 113.355 3.12505Z" fill="#ebebeb"/>
<path d="M137.092 1.00002C137.092 0.447738 137.54 2.22139e-05 138.092 2.45206e-05L140.963 3.6511e-05C141.515 3.88178e-05 141.963 0.447753 141.963 1.00004V27.5134C141.963 28.0657 141.515 28.5134 140.963 28.5134H138.092C137.54 28.5134 137.092 28.0657 137.092 27.5134V25.7116C135.181 27.5795 133.018 28.5134 130.605 28.5134C127.731 28.5134 125.346 27.4645 123.449 25.3668C121.567 23.226 120.626 20.5535 120.626 17.3494C120.626 14.2172 121.567 11.6022 123.449 9.50449C125.317 7.39239 127.666 6.33634 130.497 6.33634C132.954 6.33634 135.152 7.3421 137.092 9.35363V1.00002ZM125.583 17.3494C125.583 19.361 126.122 20.9989 127.199 22.2633C128.306 23.5421 129.699 24.1814 131.381 24.1814C133.177 24.1814 134.628 23.5636 135.734 22.328C136.84 21.0492 137.394 19.4256 137.394 17.4572C137.394 15.4888 136.84 13.8652 135.734 12.5864C134.628 11.3364 133.191 10.7114 131.424 10.7114C129.757 10.7114 128.363 11.3436 127.243 12.608C126.136 13.8867 125.583 15.4672 125.583 17.3494Z" fill="#ebebeb"/>
<path d="M137.092 1.00002C137.092 0.447738 137.54 2.22139e-05 138.092 2.45206e-05L140.963 3.6511e-05C141.515 3.88178e-05 141.963 0.447753 141.963 1.00004V27.5134C141.963 28.0657 141.515 28.5134 140.963 28.5134H138.092C137.54 28.5134 137.092 28.0657 137.092 27.5134V25.7116C135.181 27.5795 133.018 28.5134 130.605 28.5134C127.731 28.5134 125.346 27.4645 123.449 25.3668C121.567 23.226 120.626 20.5535 120.626 17.3494C120.626 14.2172 121.567 11.6022 123.449 9.50449C125.317 7.39239 127.666 6.33634 130.497 6.33634C132.954 6.33634 135.152 7.3421 137.092 9.35363V1.00002ZM125.583 17.3494C125.583 19.361 126.122 20.9989 127.199 22.2633C128.306 23.5421 129.699 24.1814 131.381 24.1814C133.177 24.1814 134.628 23.5636 135.734 22.328C136.84 21.0492 137.394 19.4256 137.394 17.4572C137.394 15.4888 136.84 13.8652 135.734 12.5864C134.628 11.3364 133.191 10.7114 131.424 10.7114C129.757 10.7114 128.363 11.3436 127.243 12.608C126.136 13.8867 125.583 15.4672 125.583 17.3494Z" fill="#ebebeb"/>
<path d="M164.214 17.5968C164.204 18.1416 163.759 18.5779 163.214 18.5779H149.152C149.281 20.3021 149.842 21.6742 150.833 22.6943C151.825 23.7001 153.096 24.203 154.648 24.203C155.855 24.203 156.853 23.9156 157.644 23.3409C158.281 22.8689 158.991 22.0673 159.773 20.9363C160.074 20.5011 160.655 20.3524 161.117 20.6102L163.497 21.9378C163.987 22.211 164.159 22.8353 163.851 23.3041C163.381 24.0197 162.892 24.6569 162.385 25.2159C161.681 25.9774 160.927 26.6096 160.122 27.1125C159.317 27.601 158.448 27.9602 157.514 28.1901C156.58 28.42 155.567 28.5349 154.475 28.5349C151.343 28.5349 148.829 27.5292 146.932 25.5177C145.036 23.4918 144.087 20.8049 144.087 17.4572C144.087 14.1382 145.007 11.4514 146.846 9.39673C148.699 7.37084 151.156 6.35789 154.217 6.35789C157.306 6.35789 159.748 7.3421 161.544 9.31052C163.326 11.2646 164.217 13.9729 164.217 17.4356L164.214 17.5968ZM159.217 14.6123C158.542 12.0261 156.911 10.733 154.325 10.733C153.735 10.733 153.182 10.8263 152.665 11.0131C152.148 11.1855 151.674 11.4442 151.243 11.789C150.826 12.1195 150.467 12.5218 150.165 12.9959C149.863 13.4701 149.633 14.0089 149.475 14.6123H159.217Z" fill="#ebebeb"/>
<path d="M164.214 17.5968C164.204 18.1416 163.759 18.5779 163.214 18.5779H149.152C149.281 20.3021 149.842 21.6742 150.833 22.6943C151.825 23.7001 153.096 24.203 154.648 24.203C155.855 24.203 156.853 23.9156 157.644 23.3409C158.281 22.8689 158.991 22.0673 159.773 20.9363C160.074 20.5011 160.655 20.3524 161.117 20.6102L163.497 21.9378C163.987 22.211 164.159 22.8353 163.851 23.3041C163.381 24.0197 162.892 24.6569 162.385 25.2159C161.681 25.9774 160.927 26.6096 160.122 27.1125C159.317 27.601 158.448 27.9602 157.514 28.1901C156.58 28.42 155.567 28.5349 154.475 28.5349C151.343 28.5349 148.829 27.5292 146.932 25.5177C145.036 23.4918 144.087 20.8049 144.087 17.4572C144.087 14.1382 145.007 11.4514 146.846 9.39673C148.699 7.37084 151.156 6.35789 154.217 6.35789C157.306 6.35789 159.748 7.3421 161.544 9.31052C163.326 11.2646 164.217 13.9729 164.217 17.4356L164.214 17.5968ZM159.217 14.6123C158.542 12.0261 156.911 10.733 154.325 10.733C153.735 10.733 153.182 10.8263 152.665 11.0131C152.148 11.1855 151.674 11.4442 151.243 11.789C150.826 12.1195 150.467 12.5218 150.165 12.9959C149.863 13.4701 149.633 14.0089 149.475 14.6123H159.217Z" fill="#ebebeb"/>
<path d="M169.558 28.5134C170.11 28.5134 170.558 28.0657 170.558 27.5134V25.5147C170.558 24.8889 169.99 24.4168 169.375 24.5317L166.525 25.0635C166.052 25.1519 165.709 25.565 165.709 26.0465V27.5134C165.709 28.0657 166.157 28.5134 166.709 28.5134H169.558Z" fill="#ebebeb"/>
<path d="M169.558 28.5134C170.11 28.5134 170.558 28.0657 170.558 27.5134V25.5147C170.558 24.8889 169.99 24.4168 169.375 24.5317L166.525 25.0635C166.052 25.1519 165.709 25.565 165.709 26.0465V27.5134C165.709 28.0657 166.157 28.5134 166.709 28.5134H169.558Z" fill="#ebebeb"/>
</svg>
